<svg width="19" height="19" viewBox="0 0 19 19" fill="none" xmlns="http://www.w3.org/2000/svg">
<mask id="mask0_950_4735" style="mask-type:alpha" maskUnits="userSpaceOnUse" x="0" y="0" width="19" height="19">
<rect width="19" height="19" fill="#D9D9D9"/>
</mask>
<g mask="url(#mask0_950_4735)">
<path d="M9.50004 16.625L8.35212 15.5958C7.01949 14.3951 5.91775 13.3594 5.04692 12.4885C4.17608 11.6177 3.48337 10.8359 2.96879 10.1432C2.45421 9.4505 2.09466 8.81387 1.89014 8.23332C1.68563 7.65276 1.58337 7.05901 1.58337 6.45207C1.58337 5.21179 1.999 4.17603 2.83025 3.34478C3.6615 2.51353 4.69726 2.0979 5.93754 2.0979C6.62365 2.0979 7.27678 2.24304 7.89692 2.53332C8.51706 2.82359 9.05143 3.23262 9.50004 3.7604C9.94865 3.23262 10.483 2.82359 11.1032 2.53332C11.7233 2.24304 12.3764 2.0979 13.0625 2.0979C14.3028 2.0979 15.3386 2.51353 16.1698 3.34478C17.0011 4.17603 17.4167 5.21179 17.4167 6.45207C17.4167 7.05901 17.3145 7.65276 17.1099 8.23332C16.9054 8.81387 16.5459 9.4505 16.0313 10.1432C15.5167 10.8359 14.824 11.6177 13.9532 12.4885C13.0823 13.3594 11.9806 14.3951 10.648 15.5958L9.50004 16.625ZM9.50004 14.4875C10.7667 13.3528 11.8091 12.3797 12.6271 11.5682C13.4452 10.7568 14.0917 10.0509 14.5667 9.45051C15.0417 8.85016 15.3716 8.31578 15.5563 7.84738C15.741 7.37898 15.8334 6.91387 15.8334 6.45207C15.8334 5.6604 15.5695 5.00068 15.0417 4.4729C14.5139 3.94512 13.8542 3.68123 13.0625 3.68123C12.4424 3.68123 11.8684 3.85606 11.3407 4.20571C10.8129 4.55537 10.45 5.00068 10.2521 5.54165H8.74796C8.55004 5.00068 8.18719 4.55537 7.65942 4.20571C7.13164 3.85606 6.55768 3.68123 5.93754 3.68123C5.14587 3.68123 4.48615 3.94512 3.95837 4.4729C3.4306 5.00068 3.16671 5.6604 3.16671 6.45207C3.16671 6.91387 3.25907 7.37898 3.44379 7.84738C3.62851 8.31578 3.95837 8.85016 4.43337 9.45051C4.90837 10.0509 5.5549 10.7568 6.37296 11.5682C7.19101 12.3797 8.23337 13.3528 9.50004 14.4875Z" fill="#D7D7D7"/>
</g>
</svg>
